<?xml version="1.0" encoding="utf-8"?>
<!-- Generator: Adobe Illustrator 23.0.6, SVG Export Plug-In . SVG Version: 6.00 Build 0)  -->
<svg version="1.1" id="Capa_1" xmlns="http://www.w3.org/2000/svg" xmlns:xlink="http://www.w3.org/1999/xlink" x="0px" y="0px"
	 viewBox="0 0 1434.55 265.45" style="enable-background:new 0 0 1434.55 265.45;" xml:space="preserve">
<style type="text/css">
	.st0{fill-rule:evenodd;clip-rule:evenodd;fill:#747474;}
	.st1{fill:#747474;}
	.st2{fill:#FBBC04;}
	.st3{fill:#4285F4;}
	.st4{fill:#34A853;}
</style>
<g>
	<path id="path2" class="st0" d="M1092.52,207.82l54.97-145.76h21.17l54.97,145.76h-20.76l-14.05-39.49h-61.28l-14.25,39.49
		L1092.52,207.82z M1133.85,150.82h48.45l-23.82-65.76h-0.81L1133.85,150.82z M1276.15,211.07c-12.9,0-24.02-5.09-33.39-15.27
		c-9.36-10.18-14.05-22.8-14.05-37.87c0-15.06,4.68-27.69,14.05-37.87c9.36-10.18,20.49-15.27,33.39-15.27
		c7.6,0,14.43,1.63,20.46,4.89s10.55,7.33,13.53,12.21h0.81l-0.81-13.84V62.06h18.73v145.76h-17.91v-13.84h-0.81
		c-2.98,4.89-7.5,8.96-13.54,12.21C1290.56,209.45,1283.75,211.07,1276.15,211.07L1276.15,211.07z M1279.2,193.97
		c8.82,0,16.32-3.26,22.5-9.77c6.18-6.51,9.26-15.27,9.26-26.26s-3.09-19.75-9.26-26.26c-6.17-6.51-13.68-9.77-22.5-9.77
		c-8.68,0-16.15,3.29-22.39,9.87c-6.24,6.58-9.36,15.31-9.36,26.16c0,10.85,3.12,19.58,9.36,26.16
		C1263.05,190.67,1270.52,193.97,1279.2,193.97L1279.2,193.97z M1387.71,211.07c-11.13,0-20.32-2.72-27.58-8.14
		c-7.26-5.43-12.6-12.21-15.99-20.36l16.69-6.92c5.29,12.48,14.32,18.73,27.08,18.73c5.84,0,10.62-1.29,14.35-3.87
		c3.73-2.58,5.6-5.97,5.6-10.18c0-6.51-4.55-10.92-13.64-13.23l-20.15-4.89c-6.37-1.63-12.42-4.72-18.12-9.27
		c-5.7-4.55-8.55-10.68-8.55-18.42c0-8.82,3.89-15.99,11.71-21.48c7.82-5.5,17.07-8.24,27.78-8.24c8.82,0,16.69,2,23.61,6
		c6.92,4,11.88,9.74,14.86,17.21l-16.29,6.72c-3.66-8.82-11.27-13.23-22.8-13.23c-5.57,0-10.25,1.15-14.05,3.46
		c-3.8,2.31-5.7,5.43-5.7,9.36c0,5.7,4.41,9.57,13.23,11.6l19.75,4.68c9.36,2.17,16.29,5.9,20.77,11.2
		c4.48,5.29,6.72,11.27,6.72,17.91c0,8.96-3.66,16.42-10.99,22.39C1408.68,208.09,1399.24,211.07,1387.71,211.07L1387.71,211.07z"/>
	<g id="g6" transform="matrix(34.141226,0,0,34.141226,-6837.2821,-2467.0322)">
		<path id="path4" class="st1" d="M213.83,78.43c-1.32,0-2.46-1.09-2.46-2.41c0-1.32,1.11-2.41,2.46-2.41
			c0.73,0,1.27,0.29,1.66,0.67l-0.47,0.47c-0.29-0.26-0.67-0.47-1.19-0.47c-0.96,0-1.74,0.78-1.74,1.76c0,0.99,0.75,1.76,1.74,1.76
			c0.62,0,0.99-0.26,1.22-0.49c0.18-0.18,0.31-0.47,0.36-0.83h-1.58v-0.65h2.23c0.03,0.13,0.03,0.26,0.03,0.41
			c0,0.49-0.13,1.11-0.57,1.56C215.07,78.2,214.53,78.43,213.83,78.43L213.83,78.43z M219.5,76.88c0,0.91-0.7,1.56-1.53,1.56
			c-0.86,0-1.53-0.65-1.53-1.56c0-0.91,0.7-1.56,1.53-1.56C218.83,75.32,219.5,76,219.5,76.88z M218.83,76.88
			c0-0.57-0.39-0.93-0.86-0.93c-0.47,0-0.86,0.39-0.86,0.93c0,0.54,0.39,0.93,0.86,0.93C218.44,77.84,218.83,77.45,218.83,76.88z
			 M222.95,76.88c0,0.91-0.7,1.56-1.53,1.56c-0.86,0-1.53-0.65-1.53-1.56c0-0.91,0.7-1.56,1.53-1.56S222.95,76,222.95,76.88z
			 M222.28,76.88c0-0.57-0.39-0.93-0.86-0.93s-0.86,0.39-0.86,0.93c0,0.54,0.39,0.93,0.86,0.93
			C221.86,77.84,222.28,77.45,222.28,76.88z M226.3,75.43v2.8c0,1.14-0.67,1.63-1.48,1.63c-0.75,0-1.22-0.52-1.37-0.91l0.6-0.26
			c0.1,0.26,0.36,0.54,0.78,0.54c0.52,0,0.83-0.31,0.83-0.91V78.1h-0.03c-0.16,0.18-0.44,0.36-0.83,0.36
			c-0.78,0-1.48-0.67-1.48-1.56s0.73-1.56,1.48-1.56c0.36,0,0.67,0.16,0.83,0.34h0.03v-0.26H226.3z M225.7,76.9
			c0-0.54-0.36-0.96-0.83-0.96c-0.47,0-0.86,0.39-0.86,0.96c0,0.54,0.39,0.93,0.86,0.93C225.34,77.84,225.7,77.42,225.7,76.9z
			 M227.49,73.77v4.56h-0.67v-4.56L227.49,73.77z M230.19,77.4l0.52,0.36c-0.18,0.26-0.57,0.7-1.3,0.7c-0.88,0-1.53-0.67-1.53-1.56
			c0-0.93,0.65-1.56,1.45-1.56c0.8,0,1.19,0.65,1.32,0.99l0.08,0.18l-2.07,0.86c0.16,0.31,0.41,0.47,0.75,0.47
			C229.74,77.84,230,77.66,230.19,77.4L230.19,77.4z M228.55,76.83l1.4-0.57c-0.08-0.18-0.31-0.34-0.57-0.34
			C229.02,75.92,228.53,76.23,228.55,76.83L228.55,76.83z"/>
	</g>
	<g id="g14" transform="matrix(34.141226,0,0,34.141226,-6837.2821,-2467.0322)">
		<path id="path8" class="st2" d="M200.41,77.41l2.5-4.27c0.32,0.19,1.92,1.07,2.17,1.24l-2.5,4.27
			C202.32,79.01,200.07,77.96,200.41,77.41z"/>
		<path id="path10" class="st3" d="M207.59,77.41l-2.5-4.27c-0.35-0.58-1.1-0.79-1.72-0.45c-0.62,0.34-0.81,1.08-0.46,1.69l2.5,4.27
			c0.35,0.58,1.1,0.79,1.72,0.45C207.73,78.76,207.94,77.99,207.59,77.41L207.59,77.41z"/>
		<ellipse id="ellipse12" class="st4" cx="201.49" cy="78.04" rx="1.25" ry="1.22"/>
	</g>
</g>
</svg>
